<svg width="100" height="100" viewBox="0 0 100 100" fill="none" xmlns="http://www.w3.org/2000/svg">
<path d="M50 99.12C77.6142 99.12 100 76.9312 100 49.56C100 22.1888 77.6142 0 50 0C22.3858 0 0 22.1888 0 49.56C0 76.9312 22.3858 99.12 50 99.12Z" fill="#2F2F2F"/>
<path d="M33.4194 62.2472C24.2794 61.3749 18.1594 53.6634 17.3594 44.9408C26.5394 42.6809 34.4194 48.3704 39.4594 55.4079L44.0794 51.5026C42.3994 48.747 41.0194 45.6743 38.6794 43.3747C32.2594 36.9716 22.8594 36.9517 19.4994 26.901C18.9394 25.2556 17.1594 18.9714 20.0394 18.9119C22.9194 18.8524 22.4994 23.967 23.2194 25.7908C24.8794 29.9539 28.3394 32.194 32.1194 34.2755C32.5794 34.3746 32.4394 34.0773 32.4394 33.7403C32.2994 30.2314 30.5794 26.0882 31.1594 22.4207C31.7394 18.7533 33.1794 20.4185 34.1194 21.2908C35.0594 22.163 35.2594 28.0111 35.5594 29.5772C37.1794 37.5068 41.6994 39.7667 45.5594 45.9518C49.4194 52.1369 46.9794 48.6677 47.7594 49.9761C48.1594 50.2338 49.3194 49.5995 49.8794 49.5003C59.0394 47.5774 67.0194 53.2074 76.3194 53.7228C78.7594 53.8616 81.8994 52.9497 83.5394 55.1105C82.5594 55.2889 78.8794 55.6458 78.4794 56.4982C78.0594 59.2537 81.0994 61.4542 83.7794 60.8991C86.4594 60.3441 85.0194 60.0467 85.4994 60.6612C86.1194 61.4939 84.7794 63.952 84.2794 64.8243C80.8394 70.7913 74.3794 70.9896 68.9594 74.201C59.5594 79.7716 60.3994 88.9501 59.7994 98.5647C48.2594 101.915 35.5594 99.1396 25.5594 92.9347C26.9194 91.3686 28.1994 89.8818 29.3194 88.1175C34.2994 80.1482 34.2594 70.9896 36.9994 62.2868C35.8394 62.2075 34.5794 62.3859 33.4394 62.2868L33.4194 62.2472ZM56.9794 55.8837C53.9394 56.518 53.7794 61.6525 57.1994 62.1877C62.0794 62.9608 62.1394 54.8132 56.9794 55.8837Z" fill="white"/>
<path d="M57.2002 47.0227C56.7802 47.5183 53.5802 47.0425 53.4602 46.3486L57.5802 35.5247C56.4402 32.8683 50.7202 28.5269 51.0002 25.6326C51.1202 24.4431 52.5602 23.4321 53.6602 24.0268L59.8402 31.2626C61.0802 27.6744 61.4002 24.007 60.1602 20.3792C59.9002 19.6259 58.6202 17.4452 58.6202 17.1082C58.5802 15.3043 60.3602 14.3725 61.7802 15.5818C62.6002 16.2955 63.7002 19.3087 64.0002 20.4188C66.7202 30.3705 60.4002 38.1613 57.2002 47.0227Z" fill="white"/>
<path d="M56.9805 55.884C62.1405 54.8135 62.0805 62.9612 57.2005 62.188C53.7805 61.633 53.9405 56.4985 56.9805 55.884Z" fill="#2F2F2F"/>
</svg>
