<svg width="24" height="24" viewBox="0 0 24 24" fill="none" xmlns="http://www.w3.org/2000/svg">
<path d="M14.091 1.9526C8.155 -1.4674 0.744004 2.8206 0.750004 9.6706C0.755004 15.4316 6.15 19.6696 11.748 18.3106M1.247 12.6246H10.89M1.247 6.6926H10.89" stroke="black" stroke-width="1.5" stroke-linecap="round" stroke-linejoin="round"/>
<path d="M7.7183 0.96875C6.12061 6.73052 6.35582 12.8467 8.3913 18.4688M11.5573 0.96875C11.8863 2.15075 12.1393 3.35275 12.3143 4.56675M22.9863 23.0067H0.987305M14.0873 23.0057H22.9873V9.01575C22.9824 8.88869 22.9277 8.76866 22.8351 8.6815C22.7425 8.59435 22.6194 8.54703 22.4923 8.54975H14.5823C14.4553 8.54704 14.3323 8.59438 14.2399 8.68157C14.1474 8.76875 14.093 8.88878 14.0883 9.01575L14.0873 23.0057Z" stroke="black" stroke-width="1.5" stroke-linecap="round" stroke-linejoin="round"/>
<path d="M18.5375 5.20941V1.64941M20.0205 11.9724H17.0535M20.0205 15.5664H17.0535M20.0205 19.1714H17.0535M16.3135 5.82041C16.3319 5.64153 16.4202 5.47715 16.5591 5.36294C16.698 5.24874 16.8764 5.19393 17.0555 5.21041H20.0215C20.2004 5.19421 20.3785 5.24914 20.5172 5.36332C20.6559 5.47749 20.744 5.64172 20.7625 5.82041V8.54941H16.3135V5.82041Z" stroke="black" stroke-width="1.5" stroke-linecap="round" stroke-linejoin="round"/>
</svg>
