<svg width="20" height="15" viewBox="0 0 20 15" fill="none" xmlns="http://www.w3.org/2000/svg">
<path d="M8.327 0.5H11.173C12.487 0.5 13.545 1.449 13.545 2.628V11.992C13.545 13.171 12.487 14.1205 11.173 14.1205H8.327C7.013 14.1205 5.955 13.171 5.955 11.992V2.628C5.955 1.449 7.013 0.5 8.327 0.5ZM0.5 0.5C2.471 0.5 4.0575 1.9235 4.0575 3.692V10.928C4.0575 12.6965 2.471 14.1205 0.5 14.1205V0.5ZM19 0.5V14.12C17.029 14.12 15.4425 12.6965 15.4425 10.928V3.692C15.4425 1.9235 17.029 0.5 19 0.5Z" stroke="black" stroke-linecap="round" stroke-linejoin="round"/>
</svg>
