<svg width="12" height="16" viewBox="0 0 12 16" fill="none" xmlns="http://www.w3.org/2000/svg">
<path fill-rule="evenodd" clip-rule="evenodd" d="M0.327 1.637C-8.9407e-08 2.279 0 3.117 0 4.797V11.197C0 12.877 -8.9407e-08 13.717 0.327 14.357C0.615638 14.9201 1.07387 15.3784 1.637 15.667C2.279 15.994 3.117 15.994 4.797 15.994H7.197C8.877 15.994 9.717 15.994 10.357 15.667C10.9209 15.3795 11.3795 14.9209 11.667 14.357C11.994 13.715 11.994 12.877 11.994 11.197V4.797C11.994 3.117 11.994 2.277 11.667 1.637C11.3795 1.07306 10.9209 0.614525 10.357 0.327C9.715 2.98023e-08 8.877 0 7.197 0H4.797C3.117 0 2.277 2.98023e-08 1.637 0.327C1.07387 0.615638 0.615638 1.07387 0.327 1.637ZM7.197 0.999H4.797C3.94 0.999 3.357 0.999 2.907 1.037C2.469 1.072 2.244 1.137 2.088 1.217C1.71169 1.40874 1.40574 1.71469 1.214 2.091C1.134 2.247 1.069 2.471 1.034 2.91C0.997 3.36 0.996 3.94 0.996 4.8V11.2C0.996 12.057 0.997 12.64 1.034 13.09C1.07 13.528 1.135 13.753 1.214 13.909C1.406 14.285 1.712 14.591 2.088 14.783C2.244 14.863 2.469 14.928 2.907 14.963C3.357 14.999 3.937 15 4.797 15H7.197C8.054 15 8.637 15 9.087 14.963C9.525 14.927 9.75 14.862 9.906 14.783C10.282 14.591 10.588 14.285 10.78 13.909C10.86 13.753 10.925 13.528 10.96 13.089C10.997 12.639 10.998 12.059 10.998 11.199V4.799C10.998 3.943 10.997 3.359 10.96 2.909C10.924 2.472 10.859 2.247 10.78 2.091C10.5883 1.71469 10.2823 1.40874 9.906 1.217C9.75 1.137 9.525 1.072 9.087 1.037C8.637 1 8.057 0.999 7.197 0.999Z" fill="black"/>
</svg>
